<?xml version="1.0" standalone="no"?><!DOCTYPE svg PUBLIC "-//W3C//DTD SVG 1.1//EN" "http://www.w3.org/Graphics/SVG/1.1/DTD/svg11.dtd"><svg t="1717636476936" class="icon" viewBox="0 0 1024 1024" version="1.1" xmlns="http://www.w3.org/2000/svg" p-id="1452" xmlns:xlink="http://www.w3.org/1999/xlink" width="200" height="200"><path d="M480 384c0 51.2-44.8 96-96 96H160C102.4 480 57.6 435.2 57.6 384V160c0-51.2 44.8-96 96-96H384c51.2 0 96 44.8 96 96V384zM966.4 384c0 51.2-44.8 96-96 96H640c-51.2 0-96-44.8-96-96V160c0-51.2 44.8-96 96-96h224c51.2 0 96 44.8 96 96l6.4 224zM480 864c0 51.2-44.8 96-96 96H160c-51.2 0-96-44.8-96-96V640c0-51.2 44.8-96 96-96H384c51.2 0 96 44.8 96 96v224zM966.4 864c0 51.2-44.8 96-96 96H640c-51.2 0-96-44.8-96-96V640c0-51.2 44.8-96 96-96h224c51.2 0 96 44.8 96 96l6.4 224z" fill="#5C6B76" p-id="1453"></path></svg>