<?xml version="1.0" standalone="no"?><!DOCTYPE svg PUBLIC "-//W3C//DTD SVG 1.1//EN" "http://www.w3.org/Graphics/SVG/1.1/DTD/svg11.dtd"><svg t="1721119958867" class="icon" viewBox="0 0 1024 1024" version="1.1" xmlns="http://www.w3.org/2000/svg" p-id="27957" width="256" height="256" xmlns:xlink="http://www.w3.org/1999/xlink"><path d="M512 512m-512 0a512 512 0 1 0 1024 0 512 512 0 1 0-1024 0Z" fill="#4786FF" p-id="27958"></path><path d="M720.738462 445.046154c0 3.938462-3.938462 11.815385-7.876924 15.753846-19.692308 39.384615-66.953846 118.153846-66.953846 118.153846l-15.753846 23.630769h66.953846l-133.907692 173.292308 31.507692-118.153846h-55.138461l19.692307-78.769231c-15.753846 3.938462-31.507692 7.876923-55.138461 15.753846 0 0-27.569231 15.753846-82.707692-31.507692 0 0-35.446154-31.507692-15.753847-39.384615l70.892308-11.815385c35.446154-3.938462 59.076923-7.876923 59.076923-7.876923s-114.215385 0-141.784615-3.938462c-27.569231-3.938462-63.015385-47.261538-66.953846-90.584615 0 0-11.815385-23.630769 23.630769-11.815385 35.446154 11.815385 181.169231 39.384615 181.169231 39.384616s-185.107692-51.2-196.923077-66.953846c-19.692308-35.446154-31.507692-74.830769-31.507693-118.153847 0-3.938462 0-3.938462 3.938462-7.876923H315.076923s141.784615 63.015385 236.307692 98.461539 181.169231 55.138462 169.353847 102.4z" fill="#FFFFFF" p-id="27959"></path></svg>