<?xml version="1.0" standalone="no"?><!DOCTYPE svg PUBLIC "-//W3C//DTD SVG 1.1//EN" "http://www.w3.org/Graphics/SVG/1.1/DTD/svg11.dtd"><svg t="1721119600573" class="icon" viewBox="0 0 1024 1024" version="1.1" xmlns="http://www.w3.org/2000/svg" p-id="21325" xmlns:xlink="http://www.w3.org/1999/xlink" width="200" height="200"><path d="M512 0c282.76736 0 512 229.23264 512 512s-229.23264 512-512 512S0 794.76736 0 512 229.23264 0 512 0z m141.95712 674.27328c-2.53952 0-4.9664 1.024-6.73792 2.84672a9.89184 9.89184 0 0 0 1.32096 14.87872 125.99296 125.99296 0 0 1 36.4032 66.88768 41.30816 41.30816 0 0 0 11.61216 26.30656 39.24992 39.24992 0 0 0 56.3712 0 41.34912 41.34912 0 0 0 0-57.57952 39.424 39.424 0 0 0-24.0128-11.70432 121.7536 121.7536 0 0 1-68.21888-38.78912 9.39008 9.39008 0 0 0-6.73792-2.84672zM481.3312 235.52c-10.8032 0-22.08768 0.65536-33.51552 1.9456-66.4576 7.48544-126.86336 36.93568-170.0864 82.93376a235.45856 235.45856 0 0 0-41.32864 60.29312 216.76032 216.76032 0 0 0-21.1968 93.5424c0 41.74848 12.26752 82.91328 35.46112 119.06048 13.11744 20.39808 35.56352 46.81728 54.76352 63.00672l-10.62912 45.568-3.072 12.84096a21.42208 21.42208 0 0 0-1.24928 3.95264c-0.18432 0.83968-0.24576 1.72032-0.31744 2.60096-0.0512 0.67584-0.18432 1.31072-0.18432 1.98656 0 11.71456 9.15456 21.22752 20.45952 21.22752 3.71712 0 7.12704-1.10592 10.12736-2.88768l0.27648-0.14336c0.45056-0.28672 0.90112-0.512 1.31072-0.8192l75.96032-39.48544a284.7744 284.7744 0 0 0 49.664 9.91232c11.13088 1.28 22.41536 1.91488 33.55648 1.91488 11.35616 0 23.12192-0.7168 34.99008-2.11968a289.13664 289.13664 0 0 0 67.072-16.2304 36.2496 36.2496 0 0 1-6.7584-3.1232 38.7072 38.7072 0 0 1-18.44224-36.93568c-15.21664 4.99712-31.11936 8.61184-47.53408 10.52672a250.9824 250.9824 0 0 1-29.32736 1.77152c-9.3184 0-18.76992-0.54272-28.06784-1.5872-1.95584-0.22528-3.88096-0.54272-5.81632-0.80896a244.96128 244.96128 0 0 1-37.632-8.16128 24.8832 24.8832 0 0 0-7.8336-1.24928c-4.1984 0-8.27392 1.15712-12.43136 3.3792-0.52224 0.28672-1.06496 0.53248-1.60768 0.84992l-48.7424 29.76768-0.03072 0.01024c-1.024 0.6144-1.5872 0.84992-2.10944 0.84992-1.72032 0-3.11296-1.50528-3.11296-3.33824l1.81248-7.53664 2.06848-8.20224 7.20896-28.43648a20.62336 20.62336 0 0 0-7.04512-22.59968 211.0464 211.0464 0 0 1-19.53792-16.9984 196.10624 196.10624 0 0 1-27.67872-33.87392c-18.3808-28.63104-28.08832-61.0816-28.08832-93.9008 0-25.47712 5.632-50.24768 16.72192-73.6256a188.81536 188.81536 0 0 1 33.15712-48.31232c35.5328-37.81632 85.48352-62.07488 140.67712-68.3008a251.8016 251.8016 0 0 1 28.08832-1.61792c9.472 0 19.33312 0.59392 29.32736 1.77152 54.92736 6.4512 104.6016 30.83264 139.8784 68.608a188.57984 188.57984 0 0 1 32.99328 48.44544 170.61888 170.61888 0 0 1 16.41472 73.0112c0 2.62144-0.14336 5.24288-0.27648 7.86432a35.9936 35.9936 0 0 1 45.42464 5.5296c0.6144 0.62464 1.13664 1.3312 1.72032 2.01728a216.7808 216.7808 0 0 0-20.224-108.97408 235.24352 235.24352 0 0 0-41.10336-60.44672c-42.9056-45.9776-102.99392-75.55072-169.1648-83.37408A300.89216 300.89216 0 0 0 481.3312 235.52z m346.44992 368.54784c-10.60864 0-20.75648 4.3008-28.16 11.9296a40.84736 40.84736 0 0 0-11.44832 24.54528c-4.83328 26.74688-18.14528 51.2-37.94944 69.7344a9.91232 9.91232 0 0 0 0 13.79328 9.3696 9.3696 0 0 0 14.57152-1.3824 121.63072 121.63072 0 0 1 65.4336-37.2224c2.72384-0.16384 5.4272-0.6144 8.06912-1.34144a39.48544 39.48544 0 0 0 17.65376-10.48576 41.4208 41.4208 0 0 0 0-57.64096 39.24992 39.24992 0 0 0-28.16-11.9296z m-147.36384-32.94208a9.90208 9.90208 0 0 0-1.8432 2.05824 121.63072 121.63072 0 0 1-65.4336 37.2224 39.48544 39.48544 0 0 0-25.72288 11.84768 41.4208 41.4208 0 0 0 0 57.64096 39.24992 39.24992 0 0 0 56.33024 0 40.84736 40.84736 0 0 0 11.44832-24.56576c4.83328-26.74688 18.14528-51.2 37.94944-69.7344a9.8816 9.8816 0 0 0 0-13.7728 9.3696 9.3696 0 0 0-12.72832-0.69632z m38.20544-72.33536a39.3216 39.3216 0 0 0-28.18048 11.90912 41.34912 41.34912 0 0 0 0 57.57952 39.424 39.424 0 0 0 24.0128 11.70432 121.7536 121.7536 0 0 1 68.21888 38.78912 9.39008 9.39008 0 0 0 13.47584 0 9.89184 9.89184 0 0 0 0.67584-13.0048 9.9328 9.9328 0 0 0-1.9968-1.87392 125.99296 125.99296 0 0 1-36.4032-66.88768 41.30816 41.30816 0 0 0-11.61216-26.30656 39.3216 39.3216 0 0 0-28.19072-11.90912z" fill="#3EA2F6" p-id="21326"></path></svg>